<svg version="1.1" id="Layer_1" xmlns="http://www.w3.org/2000/svg" xmlns:xlink="http://www.w3.org/1999/xlink" x="0px" y="0px"
	 width="100%" viewBox="0 0 1313 609" enable-background="new 0 0 1313 609" xml:space="preserve">
<path fill="#FFFFFF" opacity="1.000000" stroke="none" 
	d="
M959.000000,610.000000 
	C639.374817,610.000000 320.249603,610.000000 1.062208,610.000000 
	C1.062208,407.067871 1.062208,204.135712 1.062208,1.101774 
	C438.666656,1.101774 876.333313,1.101774 1313.976685,1.101774 
	C1313.976685,204.083847 1313.976685,407.041931 1313.976685,610.000000 
	C1195.802246,610.000000 1077.651123,610.000000 959.000000,610.000000 
M253.926971,465.601654 
	C266.874908,507.965057 284.753235,548.127869 307.534332,586.125183 
	C309.312958,589.091797 311.346985,590.376526 314.765198,590.030457 
	C329.122437,588.576721 343.645172,588.128845 357.826813,585.684937 
	C404.423126,577.655029 446.407349,558.864441 483.647980,529.634888 
	C485.145874,528.459229 486.537994,527.148804 488.478119,525.469543 
	C485.898254,524.603516 484.198853,523.956482 482.456757,523.459167 
	C411.863190,503.307434 347.506226,470.859222 289.486572,425.830322 
	C287.124268,423.996948 283.950378,422.764435 280.979767,422.237244 
	C268.563629,420.033844 256.881500,415.906158 245.802399,409.947937 
	C244.164001,409.066833 242.412659,408.395782 240.713577,407.627533 
	C240.146942,407.977814 239.580307,408.328094 239.013687,408.678375 
	C243.919250,427.392639 248.824829,446.106934 253.926971,465.601654 
M161.734589,123.787827 
	C145.524918,118.872093 129.305954,113.986671 113.114815,109.010620 
	C110.435768,108.187248 108.500702,108.545967 106.638527,110.845139 
	C96.385185,123.504501 85.224930,135.509964 75.837837,148.774414 
	C52.423157,181.860596 37.982552,218.832413 31.059620,258.737366 
	C29.866049,265.617340 29.059538,272.564453 28.044493,279.689362 
	C29.166065,279.542267 29.521824,279.574768 29.801624,279.444336 
	C30.705368,279.022949 31.595285,278.566864 32.465740,278.079865 
	C90.923065,245.374191 153.083176,223.254822 219.323303,212.887009 
	C226.621674,211.744690 233.125397,209.539078 239.566360,205.532196 
	C247.678284,200.485794 256.725006,196.747604 265.716675,193.372894 
	C272.595245,190.791260 280.014526,189.650238 288.033997,187.659760 
	C248.660233,160.657562 206.985809,139.576935 161.734589,123.787827 
M164.428406,368.900635 
	C140.379807,411.630859 122.518440,456.814301 110.917862,504.447815 
	C110.524361,506.063568 111.389793,508.813965 112.647499,509.875732 
	C125.228180,520.496460 137.398270,531.757507 150.863953,541.145752 
	C184.651733,564.702576 222.209961,579.478821 262.920197,586.051575 
	C268.828522,587.005493 274.789307,587.634521 281.848816,588.561340 
	C280.560944,585.824707 279.977936,584.493530 279.319397,583.200745 
	C272.822845,570.447632 265.931549,557.879456 259.876373,544.920532 
	C237.222122,496.437073 221.739456,445.753265 213.870117,392.768738 
	C213.252792,388.612244 212.247192,384.235138 210.236618,380.619781 
	C205.562225,372.214539 199.676849,364.467712 195.211578,355.965942 
	C191.630173,349.147095 189.415283,341.610504 186.505447,334.165955 
	C185.904022,334.674469 185.269531,334.995789 184.950851,335.512054 
	C178.217804,346.419861 171.520309,357.349609 164.428406,368.900635 
M103.202873,448.764038 
	C122.341965,394.758606 148.557281,344.503204 182.711273,298.430817 
	C183.919250,296.801300 184.608932,294.507080 184.805008,292.452484 
	C186.329224,276.480988 191.009537,261.554291 199.070358,247.678452 
	C200.541122,245.146667 201.866180,242.530258 203.529129,239.451996 
	C202.063751,239.451996 201.273560,239.320236 200.541397,239.470749 
	C140.048569,251.907867 83.371880,274.119080 30.392923,305.839539 
	C27.739307,307.428375 26.662992,309.336884 26.978146,312.332458 
	C28.764509,329.312012 29.282173,346.530762 32.489433,363.234589 
	C40.940849,407.250610 59.449200,446.920929 87.349098,482.106964 
	C88.406029,483.439941 89.621094,484.647552 91.228073,486.430054 
	C95.354523,473.511780 99.185257,461.519287 103.202873,448.764038 
M259.759644,29.175024 
	C259.116394,29.346674 258.481323,29.561920 257.828766,29.683746 
	C212.162888,38.209030 171.056183,56.788963 134.586548,85.582169 
	C133.245789,86.640717 132.064728,87.901581 130.630600,89.234154 
	C131.707687,89.856606 132.112427,90.176857 132.572830,90.339958 
	C133.822906,90.782814 135.086578,91.194267 136.362320,91.556702 
	C198.722076,109.273224 256.730621,136.347366 308.972443,174.719833 
	C322.455414,184.623337 335.478058,189.790085 351.863129,187.950134 
	C359.063019,187.141632 366.429230,187.814026 374.322723,187.814026 
	C374.022858,185.559448 373.946838,183.937744 373.580353,182.384598 
	C360.722870,127.896393 339.704437,76.738197 310.969757,28.708506 
	C309.293976,25.907476 307.483154,24.638706 304.213867,24.961250 
	C289.689178,26.394247 275.151886,27.699780 259.759644,29.175024 
M383.303711,132.229218 
	C387.919861,149.034042 392.640533,165.811356 397.072632,182.664581 
	C398.078369,186.488846 399.555176,187.972260 403.791107,187.931000 
	C428.278351,187.692505 452.770081,187.702255 477.257629,187.924347 
	C481.374634,187.961670 483.265686,186.481628 484.439392,182.839935 
	C492.129822,158.978714 500.000458,135.174713 507.486816,111.250183 
	C508.092224,109.315437 506.983002,105.840912 505.439545,104.405975 
	C497.642761,97.157516 489.751038,89.941132 481.322601,83.454155 
	C444.390808,55.029522 402.919556,36.779793 356.913849,29.039520 
	C350.701416,27.994305 344.404663,27.450394 338.146942,26.674355 
	C337.892792,27.168587 337.638611,27.662817 337.384430,28.157049 
	C355.854797,61.186108 371.353699,95.506912 383.303711,132.229218 
M446.500000,424.000763 
	C407.063599,424.000763 367.627197,424.000763 328.190796,424.000763 
	C329.442200,426.401733 330.854858,427.517914 332.341125,428.525513 
	C384.623505,463.970337 441.429443,489.336395 502.561768,505.159821 
	C507.247803,506.372742 510.481323,506.101196 513.986511,502.310303 
	C534.363831,480.272003 551.540771,456.087677 564.395569,428.910767 
	C565.049194,427.529053 565.513672,426.057861 566.308777,424.000763 
	C526.091064,424.000763 486.795532,424.000763 446.500000,424.000763 
M946.611450,350.203979 
	C953.055298,347.572906 957.500977,343.068878 958.766968,336.121216 
	C960.800293,324.961853 957.187195,316.608887 944.350830,312.798065 
	C951.141724,309.348114 955.647034,305.951538 956.809265,299.588287 
	C959.075256,287.181976 952.054016,275.960175 939.638855,273.224487 
	C933.840881,271.946869 927.802063,271.026520 921.893982,271.133423 
	C908.456238,271.376648 895.033447,272.390198 881.600830,273.008423 
	C878.559326,273.148376 877.216736,274.226929 877.233215,277.541229 
	C877.348755,300.691132 877.350342,323.842163 877.236572,346.992096 
	C877.218750,350.629059 878.505554,352.028168 882.125671,352.160156 
	C896.065186,352.668335 909.999756,353.869293 923.931580,353.805573 
	C931.257507,353.772064 938.574036,351.656067 946.611450,350.203979 
M495.732025,350.742096 
	C500.887390,351.163239 506.060730,351.434570 511.192719,352.050598 
	C515.701233,352.591766 516.992065,350.751160 516.778076,346.428619 
	C516.460999,340.024719 516.696045,333.593475 516.696045,327.003693 
	C520.650940,327.003693 523.778442,327.002045 526.906006,327.003998 
	C540.702698,327.012604 540.702698,327.012970 547.736755,339.046967 
	C555.504211,352.335693 555.504211,352.335693 570.604492,352.003448 
	C576.221985,351.879852 577.436768,349.664551 574.444824,344.836060 
	C571.116150,339.464050 567.717224,334.135406 564.330017,328.799835 
	C562.879272,326.514618 562.007935,324.453857 564.857666,322.386902 
	C575.779419,314.465057 575.982056,303.090393 574.435486,291.343292 
	C573.246033,282.308655 567.833557,276.155426 559.205078,274.165588 
	C551.044006,272.283569 542.520508,271.256104 534.146240,271.192749 
	C523.064636,271.108948 511.979034,272.478241 500.882996,272.913055 
	C496.581665,273.081604 495.025452,274.821075 495.061340,279.006592 
	C495.263855,302.633118 495.331329,326.260803 495.732025,350.742096 
M737.536621,354.000092 
	C746.661377,353.664978 755.872559,354.003326 764.892029,352.847046 
	C781.004578,350.781372 791.911560,340.606079 794.507996,325.524200 
	C795.511597,319.694519 794.826843,313.584045 795.034729,307.605804 
	C795.799805,285.605774 781.465759,275.166992 763.164673,272.198303 
	C747.128601,269.597076 731.015564,271.489563 714.968933,273.061798 
	C712.185425,273.334503 710.949524,274.642487 710.959473,277.599609 
	C711.037842,300.901062 711.031494,324.203033 710.964050,347.504547 
	C710.955933,350.300262 711.727966,351.891052 714.764221,352.119751 
	C722.032715,352.667267 729.289978,353.363770 737.536621,354.000092 
M1094.000000,317.500000 
	C1094.000000,328.918060 1094.000000,340.336121 1094.000000,351.716522 
	C1119.361816,351.716522 1143.951294,351.716522 1168.557861,351.716522 
	C1168.557861,345.386749 1168.557861,339.351532 1168.557861,332.780762 
	C1150.546265,332.780762 1132.970459,332.780762 1115.481201,332.780762 
	C1114.172485,322.698914 1114.172485,322.689423 1123.364624,322.697845 
	C1133.028687,322.706696 1142.692627,322.722931 1152.356689,322.766479 
	C1154.654541,322.776825 1156.901001,322.731720 1156.937134,319.619904 
	C1156.996216,314.524384 1156.953125,309.427673 1156.953125,303.883881 
	C1142.730713,303.883881 1129.141113,303.883881 1115.464355,303.883881 
	C1115.464355,299.728394 1115.464355,296.044098 1115.464355,292.080597 
	C1129.575684,292.080597 1143.225220,292.194183 1156.871948,292.047516 
	C1169.652710,291.910156 1168.895142,294.693054 1169.071167,279.669830 
	C1169.122559,275.281555 1167.519165,273.853668 1163.217163,273.886230 
	C1141.890625,274.047607 1120.561401,274.084137 1099.235229,273.914948 
	C1094.905762,273.880585 1093.872681,275.541504 1093.932495,279.510559 
	C1094.117920,291.837921 1094.000122,304.169830 1094.000000,317.500000 
M606.996216,303.500000 
	C606.996216,319.575012 606.996216,335.650024 606.996216,352.002228 
	C627.708191,352.002228 647.673523,352.002228 667.638855,352.002228 
	C682.230347,352.002228 682.125366,352.004852 681.764221,337.492188 
	C681.675781,333.939697 680.353882,332.919464 676.995728,332.946747 
	C662.509155,333.064362 648.021057,332.995728 633.533508,332.994904 
	C631.751282,332.994812 629.969116,332.994904 628.062317,332.994904 
	C628.062317,329.337708 628.062317,326.284576 628.062317,322.735077 
	C630.044373,322.735077 631.672119,322.734070 633.299927,322.735260 
	C643.956970,322.742889 654.614197,322.720428 665.270935,322.781067 
	C667.846069,322.795776 670.006348,322.573395 669.988281,319.229004 
	C669.961487,314.289215 669.981323,309.349182 669.981323,303.867798 
	C655.679016,303.867798 641.949524,303.867798 627.690979,303.867798 
	C627.690979,301.685913 627.874878,300.035400 627.656555,298.439941 
	C626.993164,293.591614 628.482300,291.731140 633.847107,291.921295 
	C646.653625,292.375153 659.486389,292.088776 672.308594,292.100250 
	C675.075012,292.102722 677.841370,292.100616 681.124817,292.100616 
	C681.124817,287.089722 680.953979,282.789551 681.178711,278.510162 
	C681.359924,275.058746 680.164001,273.863281 676.630005,273.887024 
	C654.982849,274.032410 633.334045,274.053467 611.686829,273.932159 
	C607.810730,273.910400 606.863037,275.504211 606.942017,279.021362 
	C607.117676,286.844055 606.996460,294.673370 606.996216,303.500000 
M282.715637,352.986176 
	C286.378876,352.980530 290.097961,353.341949 293.679047,352.796692 
	C295.206299,352.564148 297.598724,350.470612 297.635834,349.166931 
	C297.990082,336.724518 297.913116,324.270050 297.990295,311.819244 
	C298.000122,310.235596 298.183777,308.653015 298.292267,306.987946 
	C303.818604,306.349121 305.568756,310.588348 307.983582,313.447479 
	C317.856110,325.136230 327.487396,337.028595 337.336121,348.737823 
	C338.527008,350.153717 340.446259,351.718048 342.119659,351.828918 
	C347.869293,352.209778 353.659698,351.975220 359.682709,351.975220 
	C359.682709,325.715881 359.682709,300.041382 359.682709,274.296692 
	C353.006866,274.296692 346.776245,274.296692 339.492737,274.296692 
	C339.492737,290.254974 339.492737,305.875549 339.492737,322.899384 
	C337.154724,320.706146 335.967438,319.816650 335.054840,318.702179 
	C323.990814,305.190948 312.995911,291.622955 301.895386,278.141846 
	C300.571838,276.534454 298.806213,274.284149 297.115448,274.164093 
	C290.562927,273.699005 283.957794,273.974945 277.661621,273.974945 
	C277.288300,275.061798 277.090698,275.369049 277.090210,275.676666 
	C277.050568,300.152344 277.067230,324.628265 276.956879,349.103577 
	C276.940308,352.768463 278.982239,353.171661 282.715637,352.986176 
M1216.184937,319.441071 
	C1219.286011,319.986145 1222.367432,320.728424 1225.491943,321.037231 
	C1233.091675,321.788391 1240.712646,322.324799 1248.322754,322.975494 
	C1251.713867,323.265503 1254.041382,324.949310 1254.366089,328.469360 
	C1254.713013,332.229736 1252.225220,334.039703 1248.982666,334.431396 
	C1243.722778,335.066833 1238.365723,335.885406 1233.128174,335.515472 
	C1221.571289,334.699341 1210.063354,333.190613 1197.999390,331.907440 
	C1197.999390,336.336578 1198.134277,340.963043 1197.954346,345.577301 
	C1197.822754,348.953186 1198.882935,350.537659 1202.483276,351.301575 
	C1216.783813,354.335693 1231.256836,354.560150 1245.688110,353.746948 
	C1251.664307,353.410156 1257.835327,351.481049 1263.346069,349.004303 
	C1274.131714,344.156769 1276.171265,334.573578 1275.055420,323.843018 
	C1274.154297,315.178497 1268.860596,309.872803 1261.098633,307.325470 
	C1255.646973,305.536255 1249.803223,304.799438 1244.075806,304.029755 
	C1237.346802,303.125427 1230.507080,302.977814 1223.821777,301.863220 
	C1222.095947,301.575531 1219.674194,298.968811 1219.562256,297.294250 
	C1219.446655,295.567291 1221.374146,292.820251 1223.093018,292.051086 
	C1226.025757,290.738831 1229.526367,289.964142 1232.731567,290.121552 
	C1245.284180,290.738037 1257.814575,291.807526 1271.002441,292.755371 
	C1271.002441,288.825684 1270.865234,284.200287 1271.046997,279.587433 
	C1271.186768,276.037048 1269.629639,274.345459 1266.213867,273.996185 
	C1259.454346,273.304993 1252.654175,272.846954 1245.955322,271.766998 
	C1235.179321,270.029755 1224.700684,271.203552 1214.509277,274.623535 
	C1203.281372,278.391357 1197.820435,286.513367 1197.998047,298.095612 
	C1198.152344,308.152130 1204.324219,315.624207 1216.184937,319.441071 
M410.432190,350.157104 
	C428.537964,356.860718 446.752258,354.440369 464.951630,350.686462 
	C465.766937,350.518250 466.882294,349.122375 466.911865,348.265656 
	C467.093658,343.001068 467.002930,337.727051 467.002930,331.902802 
	C462.255859,332.783875 458.235901,333.994141 454.166504,334.192841 
	C444.430817,334.668213 434.640717,335.214478 424.933380,334.662811 
	C418.671173,334.306946 412.384644,329.064026 412.746155,320.686401 
	C412.989166,315.053894 412.647919,309.396057 412.895996,303.763977 
	C413.222687,296.347839 417.444092,291.419434 424.934753,291.069977 
	C435.013458,290.599762 445.213348,290.373657 455.224060,291.391663 
	C467.867920,292.677429 467.670074,293.263916 467.616119,280.626465 
	C467.598907,276.600861 466.395691,274.613678 462.244385,273.846649 
	C448.427490,271.293671 434.619110,270.111969 420.606842,272.092285 
	C405.866943,274.175385 394.535065,284.043030 391.965088,298.674957 
	C390.713257,305.802277 390.880249,313.254974 391.070892,320.542969 
	C391.420593,333.910858 397.024384,344.224518 410.432190,350.157104 
M989.999695,296.500183 
	C989.999695,314.896118 989.999695,333.292023 989.999695,351.991760 
	C1014.318909,351.991760 1037.926147,352.035706 1061.531494,351.847260 
	C1062.586060,351.838837 1064.361084,349.815308 1064.526123,348.562500 
	C1064.956909,345.290588 1064.438477,341.903076 1064.744873,338.603058 
	C1065.142334,334.323029 1063.785034,332.797363 1059.237671,332.891327 
	C1045.099609,333.183502 1030.951782,332.998047 1016.807800,332.997894 
	C1015.039978,332.997864 1013.272156,332.997894 1011.305603,332.997894 
	C1011.174194,331.044189 1011.012756,329.749512 1011.011292,328.454651 
	C1010.993042,311.981018 1010.934692,295.506989 1011.046875,279.034119 
	C1011.070801,275.520935 1010.108398,273.725128 1006.257935,273.950745 
	C1002.443787,274.174194 998.597656,274.162140 994.781616,273.955780 
	C990.981384,273.750244 989.835205,275.475708 989.952881,279.028259 
	C990.134705,284.513428 990.000122,290.009094 989.999695,296.500183 
M538.799988,142.695084 
	C535.368835,138.314499 531.937683,133.933914 527.630798,128.435333 
	C520.753296,149.012039 514.362488,168.132538 507.884613,187.513550 
	C527.088196,187.513550 545.635132,187.513550 564.962341,187.513550 
	C557.753601,171.482208 549.017212,157.078018 538.799988,142.695084 
M845.997498,278.654266 
	C845.899048,277.217285 845.800659,275.780273 845.705933,274.397339 
	C838.629150,274.397339 831.925720,274.397339 825.423218,274.397339 
	C825.423218,300.471191 825.423218,326.144257 825.423218,351.684692 
	C832.438232,351.684692 839.023682,351.684692 845.997925,351.684692 
	C845.997925,327.457489 845.997925,303.541504 845.997498,278.654266 
M224.987930,318.500000 
	C224.987930,329.578827 224.987930,340.657623 224.987930,352.002075 
	C231.219910,352.002075 236.712219,352.216125 242.163864,351.840240 
	C243.409668,351.754303 245.525787,349.641571 245.535950,348.447174 
	C245.736877,324.808044 245.722458,301.166565 245.579559,277.526581 
	C245.572464,276.353851 244.052292,274.225342 243.152756,274.179230 
	C237.237610,273.876068 231.299423,274.022827 224.987915,274.022827 
	C224.987915,288.924530 224.987915,303.212250 224.987930,318.500000 
z"/>
<path fill="#FCD536" opacity="1.000000" stroke="none" 
	d="
M253.828674,465.211426 
	C248.824829,446.106934 243.919250,427.392639 239.013687,408.678375 
	C239.580307,408.328094 240.146942,407.977814 240.713577,407.627533 
	C242.412659,408.395782 244.164001,409.066833 245.802399,409.947937 
	C256.881500,415.906158 268.563629,420.033844 280.979767,422.237244 
	C283.950378,422.764435 287.124268,423.996948 289.486572,425.830322 
	C347.506226,470.859222 411.863190,503.307434 482.456757,523.459167 
	C484.198853,523.956482 485.898254,524.603516 488.478119,525.469543 
	C486.537994,527.148804 485.145874,528.459229 483.647980,529.634888 
	C446.407349,558.864441 404.423126,577.655029 357.826813,585.684937 
	C343.645172,588.128845 329.122437,588.576721 314.765198,590.030457 
	C311.346985,590.376526 309.312958,589.091797 307.534332,586.125183 
	C284.753235,548.127869 266.874908,507.965057 253.828674,465.211426 
z"/>
<path fill="#FCD536" opacity="1.000000" stroke="none" 
	d="
M162.118393,123.883362 
	C206.985809,139.576935 248.660233,160.657562 288.033997,187.659760 
	C280.014526,189.650238 272.595245,190.791260 265.716675,193.372894 
	C256.725006,196.747604 247.678284,200.485794 239.566360,205.532196 
	C233.125397,209.539078 226.621674,211.744690 219.323303,212.887009 
	C153.083176,223.254822 90.923065,245.374191 32.465740,278.079865 
	C31.595285,278.566864 30.705368,279.022949 29.801624,279.444336 
	C29.521824,279.574768 29.166065,279.542267 28.044493,279.689362 
	C29.059538,272.564453 29.866049,265.617340 31.059620,258.737366 
	C37.982552,218.832413 52.423157,181.860596 75.837837,148.774414 
	C85.224930,135.509964 96.385185,123.504501 106.638527,110.845139 
	C108.500702,108.545967 110.435768,108.187248 113.114815,109.010620 
	C129.305954,113.986671 145.524918,118.872093 162.118393,123.883362 
z"/>
<path fill="#FCD536" opacity="1.000000" stroke="none" 
	d="
M164.622131,368.587860 
	C171.520309,357.349609 178.217804,346.419861 184.950851,335.512054 
	C185.269531,334.995789 185.904022,334.674469 186.505447,334.165955 
	C189.415283,341.610504 191.630173,349.147095 195.211578,355.965942 
	C199.676849,364.467712 205.562225,372.214539 210.236618,380.619781 
	C212.247192,384.235138 213.252792,388.612244 213.870117,392.768738 
	C221.739456,445.753265 237.222122,496.437073 259.876373,544.920532 
	C265.931549,557.879456 272.822845,570.447632 279.319397,583.200745 
	C279.977936,584.493530 280.560944,585.824707 281.848816,588.561340 
	C274.789307,587.634521 268.828522,587.005493 262.920197,586.051575 
	C222.209961,579.478821 184.651733,564.702576 150.863953,541.145752 
	C137.398270,531.757507 125.228180,520.496460 112.647499,509.875732 
	C111.389793,508.813965 110.524361,506.063568 110.917862,504.447815 
	C122.518440,456.814301 140.379807,411.630859 164.622131,368.587860 
z"/>
<path fill="#FCD536" opacity="1.000000" stroke="none" 
	d="
M103.109436,449.145416 
	C99.185257,461.519287 95.354523,473.511780 91.228073,486.430054 
	C89.621094,484.647552 88.406029,483.439941 87.349098,482.106964 
	C59.449200,446.920929 40.940849,407.250610 32.489433,363.234589 
	C29.282173,346.530762 28.764509,329.312012 26.978146,312.332458 
	C26.662992,309.336884 27.739307,307.428375 30.392923,305.839539 
	C83.371880,274.119080 140.048569,251.907867 200.541397,239.470749 
	C201.273560,239.320236 202.063751,239.451996 203.529129,239.451996 
	C201.866180,242.530258 200.541122,245.146667 199.070358,247.678452 
	C191.009537,261.554291 186.329224,276.480988 184.805008,292.452484 
	C184.608932,294.507080 183.919250,296.801300 182.711273,298.430817 
	C148.557281,344.503204 122.341965,394.758606 103.109436,449.145416 
z"/>
<path fill="#FCD536" opacity="1.000000" stroke="none" 
	d="
M260.189392,29.113214 
	C275.151886,27.699780 289.689178,26.394247 304.213867,24.961250 
	C307.483154,24.638706 309.293976,25.907476 310.969757,28.708506 
	C339.704437,76.738197 360.722870,127.896393 373.580353,182.384598 
	C373.946838,183.937744 374.022858,185.559448 374.322723,187.814026 
	C366.429230,187.814026 359.063019,187.141632 351.863129,187.950134 
	C335.478058,189.790085 322.455414,184.623337 308.972443,174.719833 
	C256.730621,136.347366 198.722076,109.273224 136.362320,91.556702 
	C135.086578,91.194267 133.822906,90.782814 132.572830,90.339958 
	C132.112427,90.176857 131.707687,89.856606 130.630600,89.234154 
	C132.064728,87.901581 133.245789,86.640717 134.586548,85.582169 
	C171.056183,56.788963 212.162888,38.209030 257.828766,29.683746 
	C258.481323,29.561920 259.116394,29.346674 260.189392,29.113214 
z"/>
<path fill="#FCD536" opacity="1.000000" stroke="none" 
	d="
M383.187805,131.850220 
	C371.353699,95.506912 355.854797,61.186108 337.384430,28.157049 
	C337.638611,27.662817 337.892792,27.168587 338.146942,26.674355 
	C344.404663,27.450394 350.701416,27.994305 356.913849,29.039520 
	C402.919556,36.779793 444.390808,55.029522 481.322601,83.454155 
	C489.751038,89.941132 497.642761,97.157516 505.439545,104.405975 
	C506.983002,105.840912 508.092224,109.315437 507.486816,111.250183 
	C500.000458,135.174713 492.129822,158.978714 484.439392,182.839935 
	C483.265686,186.481628 481.374634,187.961670 477.257629,187.924347 
	C452.770081,187.702255 428.278351,187.692505 403.791107,187.931000 
	C399.555176,187.972260 398.078369,186.488846 397.072632,182.664581 
	C392.640533,165.811356 387.919861,149.034042 383.187805,131.850220 
z"/>
<path fill="#FCD536" opacity="1.000000" stroke="none" 
	d="
M447.000000,424.000763 
	C486.795532,424.000763 526.091064,424.000763 566.308777,424.000763 
	C565.513672,426.057861 565.049194,427.529053 564.395569,428.910767 
	C551.540771,456.087677 534.363831,480.272003 513.986511,502.310303 
	C510.481323,506.101196 507.247803,506.372742 502.561768,505.159821 
	C441.429443,489.336395 384.623505,463.970337 332.341125,428.525513 
	C330.854858,427.517914 329.442200,426.401733 328.190796,424.000763 
	C367.627197,424.000763 407.063599,424.000763 447.000000,424.000763 
z"/>
<path fill="#FBD539" opacity="1.000000" stroke="none" 
	d="
M946.253113,350.342194 
	C938.574036,351.656067 931.257507,353.772064 923.931580,353.805573 
	C909.999756,353.869293 896.065186,352.668335 882.125671,352.160156 
	C878.505554,352.028168 877.218750,350.629059 877.236572,346.992096 
	C877.350342,323.842163 877.348755,300.691132 877.233215,277.541229 
	C877.216736,274.226929 878.559326,273.148376 881.600830,273.008423 
	C895.033447,272.390198 908.456238,271.376648 921.893982,271.133423 
	C927.802063,271.026520 933.840881,271.946869 939.638855,273.224487 
	C952.054016,275.960175 959.075256,287.181976 956.809265,299.588287 
	C955.647034,305.951538 951.141724,309.348114 944.350830,312.798065 
	C957.187195,316.608887 960.800293,324.961853 958.766968,336.121216 
	C957.500977,343.068878 953.055298,347.572906 946.253113,350.342194 
M923.322388,303.998138 
	C926.453491,303.670105 929.584595,303.342682 932.715637,303.013916 
	C936.145630,302.653748 938.210144,301.114319 938.175842,297.306793 
	C938.141968,293.551331 936.586487,291.110291 932.744019,290.950623 
	C922.816650,290.538086 912.880493,290.199829 902.947998,290.202972 
	C901.544067,290.203400 899.163269,292.103577 898.929688,293.424194 
	C898.346008,296.724518 898.737244,300.197235 898.737244,303.999451 
	C907.150391,303.999451 914.756226,303.999451 923.322388,303.998138 
M919.497070,322.696075 
	C912.734680,322.696075 905.972290,322.696075 898.697937,322.696075 
	C898.697937,325.720123 898.886169,328.032898 898.655396,330.303040 
	C898.274475,334.049774 899.744873,335.214752 903.476257,335.098297 
	C908.110168,334.953735 912.769348,335.775909 917.412231,335.721283 
	C923.216614,335.653046 929.039062,335.332550 934.807983,334.702545 
	C938.228882,334.328888 940.784973,332.203827 940.747559,328.438629 
	C940.715332,325.200653 938.386475,323.895416 935.399353,323.684631 
	C930.432617,323.334137 925.463196,323.022614 919.497070,322.696075 
z"/>
<path fill="#FBD538" opacity="1.000000" stroke="none" 
	d="
M495.588440,350.315094 
	C495.331329,326.260803 495.263855,302.633118 495.061340,279.006592 
	C495.025452,274.821075 496.581665,273.081604 500.882996,272.913055 
	C511.979034,272.478241 523.064636,271.108948 534.146240,271.192749 
	C542.520508,271.256104 551.044006,272.283569 559.205078,274.165588 
	C567.833557,276.155426 573.246033,282.308655 574.435486,291.343292 
	C575.982056,303.090393 575.779419,314.465057 564.857666,322.386902 
	C562.007935,324.453857 562.879272,326.514618 564.330017,328.799835 
	C567.717224,334.135406 571.116150,339.464050 574.444824,344.836060 
	C577.436768,349.664551 576.221985,351.879852 570.604492,352.003448 
	C555.504211,352.335693 555.504211,352.335693 547.736755,339.046967 
	C540.702698,327.012970 540.702698,327.012604 526.906006,327.003998 
	C523.778442,327.002045 520.650940,327.003693 516.696045,327.003693 
	C516.696045,333.593475 516.460999,340.024719 516.778076,346.428619 
	C516.992065,350.751160 515.701233,352.591766 511.192719,352.050598 
	C506.060730,351.434570 500.887390,351.163239 495.588440,350.315094 
M527.999023,308.412354 
	C533.952454,308.271606 539.914490,308.282349 545.856873,307.946228 
	C551.468445,307.628845 553.872070,305.113983 553.997009,300.049347 
	C554.163757,293.286957 552.483154,290.566010 546.421143,290.237122 
	C537.986328,289.779541 529.503540,290.003174 521.051392,290.263031 
	C519.638184,290.306458 517.171753,291.914429 517.079163,292.965668 
	C516.651367,297.824463 516.890320,302.741974 516.890320,308.261169 
	C520.830017,308.261169 523.957886,308.261169 527.999023,308.412354 
z"/>
<path fill="#FCD537" opacity="1.000000" stroke="none" 
	d="
M737.044189,354.000122 
	C729.289978,353.363770 722.032715,352.667267 714.764221,352.119751 
	C711.727966,351.891052 710.955933,350.300262 710.964050,347.504547 
	C711.031494,324.203033 711.037842,300.901062 710.959473,277.599609 
	C710.949524,274.642487 712.185425,273.334503 714.968933,273.061798 
	C731.015564,271.489563 747.128601,269.597076 763.164673,272.198303 
	C781.465759,275.166992 795.799805,285.605774 795.034729,307.605804 
	C794.826843,313.584045 795.511597,319.694519 794.507996,325.524200 
	C791.911560,340.606079 781.004578,350.781372 764.892029,352.847046 
	C755.872559,354.003326 746.661377,353.664978 737.044189,354.000122 
M732.000000,298.553864 
	C732.000000,310.654266 732.000000,322.754639 732.000000,335.250244 
	C743.266113,336.373962 754.028198,336.917023 764.486938,333.507904 
	C770.649475,331.499146 773.942078,326.174011 773.994019,319.728027 
	C774.030151,315.238800 774.010742,310.748993 774.000305,306.259491 
	C773.981750,298.290405 770.538025,292.758606 762.727356,291.546173 
	C752.749695,289.997375 742.545166,289.909943 731.999878,289.161560 
	C731.999878,292.972656 731.999878,295.274017 732.000000,298.553864 
z"/>
<path fill="#FCD536" opacity="1.000000" stroke="none" 
	d="
M1094.000000,317.000000 
	C1094.000122,304.169830 1094.117920,291.837921 1093.932495,279.510559 
	C1093.872681,275.541504 1094.905762,273.880585 1099.235229,273.914948 
	C1120.561401,274.084137 1141.890625,274.047607 1163.217163,273.886230 
	C1167.519165,273.853668 1169.122559,275.281555 1169.071167,279.669830 
	C1168.895142,294.693054 1169.652710,291.910156 1156.871948,292.047516 
	C1143.225220,292.194183 1129.575684,292.080597 1115.464355,292.080597 
	C1115.464355,296.044098 1115.464355,299.728394 1115.464355,303.883881 
	C1129.141113,303.883881 1142.730713,303.883881 1156.953125,303.883881 
	C1156.953125,309.427673 1156.996216,314.524384 1156.937134,319.619904 
	C1156.901001,322.731720 1154.654541,322.776825 1152.356689,322.766479 
	C1142.692627,322.722931 1133.028687,322.706696 1123.364624,322.697845 
	C1114.172485,322.689423 1114.172485,322.698914 1115.481201,332.780762 
	C1132.970459,332.780762 1150.546265,332.780762 1168.557861,332.780762 
	C1168.557861,339.351532 1168.557861,345.386749 1168.557861,351.716522 
	C1143.951294,351.716522 1119.361816,351.716522 1094.000000,351.716522 
	C1094.000000,340.336121 1094.000000,328.918060 1094.000000,317.000000 
z"/>
<path fill="#FCD537" opacity="1.000000" stroke="none" 
	d="
M606.996216,303.000000 
	C606.996460,294.673370 607.117676,286.844055 606.942017,279.021362 
	C606.863037,275.504211 607.810730,273.910400 611.686829,273.932159 
	C633.334045,274.053467 654.982849,274.032410 676.630005,273.887024 
	C680.164001,273.863281 681.359924,275.058746 681.178711,278.510162 
	C680.953979,282.789551 681.124817,287.089722 681.124817,292.100616 
	C677.841370,292.100616 675.075012,292.102722 672.308594,292.100250 
	C659.486389,292.088776 646.653625,292.375153 633.847107,291.921295 
	C628.482300,291.731140 626.993164,293.591614 627.656555,298.439941 
	C627.874878,300.035400 627.690979,301.685913 627.690979,303.867798 
	C641.949524,303.867798 655.679016,303.867798 669.981323,303.867798 
	C669.981323,309.349182 669.961487,314.289215 669.988281,319.229004 
	C670.006348,322.573395 667.846069,322.795776 665.270935,322.781067 
	C654.614197,322.720428 643.956970,322.742889 633.299927,322.735260 
	C631.672119,322.734070 630.044373,322.735077 628.062317,322.735077 
	C628.062317,326.284576 628.062317,329.337708 628.062317,332.994904 
	C629.969116,332.994904 631.751282,332.994812 633.533508,332.994904 
	C648.021057,332.995728 662.509155,333.064362 676.995728,332.946747 
	C680.353882,332.919464 681.675781,333.939697 681.764221,337.492188 
	C682.125366,352.004852 682.230347,352.002228 667.638855,352.002228 
	C647.673523,352.002228 627.708191,352.002228 606.996216,352.002228 
	C606.996216,335.650024 606.996216,319.575012 606.996216,303.000000 
z"/>
<path fill="#FCD537" opacity="1.000000" stroke="none" 
	d="
M282.246460,352.985657 
	C278.982239,353.171661 276.940308,352.768463 276.956879,349.103577 
	C277.067230,324.628265 277.050568,300.152344 277.090210,275.676666 
	C277.090698,275.369049 277.288300,275.061798 277.661621,273.974945 
	C283.957794,273.974945 290.562927,273.699005 297.115448,274.164093 
	C298.806213,274.284149 300.571838,276.534454 301.895386,278.141846 
	C312.995911,291.622955 323.990814,305.190948 335.054840,318.702179 
	C335.967438,319.816650 337.154724,320.706146 339.492737,322.899384 
	C339.492737,305.875549 339.492737,290.254974 339.492737,274.296692 
	C346.776245,274.296692 353.006866,274.296692 359.682709,274.296692 
	C359.682709,300.041382 359.682709,325.715881 359.682709,351.975220 
	C353.659698,351.975220 347.869293,352.209778 342.119659,351.828918 
	C340.446259,351.718048 338.527008,350.153717 337.336121,348.737823 
	C327.487396,337.028595 317.856110,325.136230 307.983582,313.447479 
	C305.568756,310.588348 303.818604,306.349121 298.292267,306.987946 
	C298.183777,308.653015 298.000122,310.235596 297.990295,311.819244 
	C297.913116,324.270050 297.990082,336.724518 297.635834,349.166931 
	C297.598724,350.470612 295.206299,352.564148 293.679047,352.796692 
	C290.097961,353.341949 286.378876,352.980530 282.246460,352.985657 
z"/>
<path fill="#FCD538" opacity="1.000000" stroke="none" 
	d="
M1215.802246,319.314362 
	C1204.324219,315.624207 1198.152344,308.152130 1197.998047,298.095612 
	C1197.820435,286.513367 1203.281372,278.391357 1214.509277,274.623535 
	C1224.700684,271.203552 1235.179321,270.029755 1245.955322,271.766998 
	C1252.654175,272.846954 1259.454346,273.304993 1266.213867,273.996185 
	C1269.629639,274.345459 1271.186768,276.037048 1271.046997,279.587433 
	C1270.865234,284.200287 1271.002441,288.825684 1271.002441,292.755371 
	C1257.814575,291.807526 1245.284180,290.738037 1232.731567,290.121552 
	C1229.526367,289.964142 1226.025757,290.738831 1223.093018,292.051086 
	C1221.374146,292.820251 1219.446655,295.567291 1219.562256,297.294250 
	C1219.674194,298.968811 1222.095947,301.575531 1223.821777,301.863220 
	C1230.507080,302.977814 1237.346802,303.125427 1244.075806,304.029755 
	C1249.803223,304.799438 1255.646973,305.536255 1261.098633,307.325470 
	C1268.860596,309.872803 1274.154297,315.178497 1275.055420,323.843018 
	C1276.171265,334.573578 1274.131714,344.156769 1263.346069,349.004303 
	C1257.835327,351.481049 1251.664307,353.410156 1245.688110,353.746948 
	C1231.256836,354.560150 1216.783813,354.335693 1202.483276,351.301575 
	C1198.882935,350.537659 1197.822754,348.953186 1197.954346,345.577301 
	C1198.134277,340.963043 1197.999390,336.336578 1197.999390,331.907440 
	C1210.063354,333.190613 1221.571289,334.699341 1233.128174,335.515472 
	C1238.365723,335.885406 1243.722778,335.066833 1248.982666,334.431396 
	C1252.225220,334.039703 1254.713013,332.229736 1254.366089,328.469360 
	C1254.041382,324.949310 1251.713867,323.265503 1248.322754,322.975494 
	C1240.712646,322.324799 1233.091675,321.788391 1225.491943,321.037231 
	C1222.367432,320.728424 1219.286011,319.986145 1215.802246,319.314362 
z"/>
<path fill="#FCD537" opacity="1.000000" stroke="none" 
	d="
M410.079895,350.016846 
	C397.024384,344.224518 391.420593,333.910858 391.070892,320.542969 
	C390.880249,313.254974 390.713257,305.802277 391.965088,298.674957 
	C394.535065,284.043030 405.866943,274.175385 420.606842,272.092285 
	C434.619110,270.111969 448.427490,271.293671 462.244385,273.846649 
	C466.395691,274.613678 467.598907,276.600861 467.616119,280.626465 
	C467.670074,293.263916 467.867920,292.677429 455.224060,291.391663 
	C445.213348,290.373657 435.013458,290.599762 424.934753,291.069977 
	C417.444092,291.419434 413.222687,296.347839 412.895996,303.763977 
	C412.647919,309.396057 412.989166,315.053894 412.746155,320.686401 
	C412.384644,329.064026 418.671173,334.306946 424.933380,334.662811 
	C434.640717,335.214478 444.430817,334.668213 454.166504,334.192841 
	C458.235901,333.994141 462.255859,332.783875 467.002930,331.902802 
	C467.002930,337.727051 467.093658,343.001068 466.911865,348.265656 
	C466.882294,349.122375 465.766937,350.518250 464.951630,350.686462 
	C446.752258,354.440369 428.537964,356.860718 410.079895,350.016846 
z"/>
<path fill="#FCD536" opacity="1.000000" stroke="none" 
	d="
M989.999695,296.000244 
	C990.000122,290.009094 990.134705,284.513428 989.952881,279.028259 
	C989.835205,275.475708 990.981384,273.750244 994.781616,273.955780 
	C998.597656,274.162140 1002.443787,274.174194 1006.257935,273.950745 
	C1010.108398,273.725128 1011.070801,275.520935 1011.046875,279.034119 
	C1010.934692,295.506989 1010.993042,311.981018 1011.011292,328.454651 
	C1011.012756,329.749512 1011.174194,331.044189 1011.305603,332.997894 
	C1013.272156,332.997894 1015.039978,332.997864 1016.807800,332.997894 
	C1030.951782,332.998047 1045.099609,333.183502 1059.237671,332.891327 
	C1063.785034,332.797363 1065.142334,334.323029 1064.744873,338.603058 
	C1064.438477,341.903076 1064.956909,345.290588 1064.526123,348.562500 
	C1064.361084,349.815308 1062.586060,351.838837 1061.531494,351.847260 
	C1037.926147,352.035706 1014.318909,351.991760 989.999695,351.991760 
	C989.999695,333.292023 989.999695,314.896118 989.999695,296.000244 
z"/>
<path fill="#FBD539" opacity="1.000000" stroke="none" 
	d="
M538.986450,143.000000 
	C549.017212,157.078018 557.753601,171.482208 564.962341,187.513550 
	C545.635132,187.513550 527.088196,187.513550 507.884613,187.513550 
	C514.362488,168.132538 520.753296,149.012039 527.630798,128.435333 
	C531.937683,133.933914 535.368835,138.314499 538.986450,143.000000 
z"/>
<path fill="#FCD536" opacity="1.000000" stroke="none" 
	d="
M845.997681,279.139893 
	C845.997925,303.541504 845.997925,327.457489 845.997925,351.684692 
	C839.023682,351.684692 832.438232,351.684692 825.423218,351.684692 
	C825.423218,326.144257 825.423218,300.471191 825.423218,274.397339 
	C831.925720,274.397339 838.629150,274.397339 845.705933,274.397339 
	C845.800659,275.780273 845.899048,277.217285 845.997681,279.139893 
z"/>
<path fill="#FBD539" opacity="1.000000" stroke="none" 
	d="
M224.987915,318.000000 
	C224.987915,303.212250 224.987915,288.924530 224.987915,274.022827 
	C231.299423,274.022827 237.237610,273.876068 243.152756,274.179230 
	C244.052292,274.225342 245.572464,276.353851 245.579559,277.526581 
	C245.722458,301.166565 245.736877,324.808044 245.535950,348.447174 
	C245.525787,349.641571 243.409668,351.754303 242.163864,351.840240 
	C236.712219,352.216125 231.219910,352.002075 224.987930,352.002075 
	C224.987930,340.657623 224.987930,329.578827 224.987915,318.000000 
z"/>
<path fill="#FDFDFC" opacity="1.000000" stroke="none" 
	d="
M922.842285,303.998779 
	C914.756226,303.999451 907.150391,303.999451 898.737244,303.999451 
	C898.737244,300.197235 898.346008,296.724518 898.929688,293.424194 
	C899.163269,292.103577 901.544067,290.203400 902.947998,290.202972 
	C912.880493,290.199829 922.816650,290.538086 932.744019,290.950623 
	C936.586487,291.110291 938.141968,293.551331 938.175842,297.306793 
	C938.210144,301.114319 936.145630,302.653748 932.715637,303.013916 
	C929.584595,303.342682 926.453491,303.670105 922.842285,303.998779 
z"/>
<path fill="#FDFDFC" opacity="1.000000" stroke="none" 
	d="
M919.995972,322.695374 
	C925.463196,323.022614 930.432617,323.334137 935.399353,323.684631 
	C938.386475,323.895416 940.715332,325.200653 940.747559,328.438629 
	C940.784973,332.203827 938.228882,334.328888 934.807983,334.702545 
	C929.039062,335.332550 923.216614,335.653046 917.412231,335.721283 
	C912.769348,335.775909 908.110168,334.953735 903.476257,335.098297 
	C899.744873,335.214752 898.274475,334.049774 898.655396,330.303040 
	C898.886169,328.032898 898.697937,325.720123 898.697937,322.696075 
	C905.972290,322.696075 912.734680,322.696075 919.995972,322.695374 
z"/>
<path fill="#FDFDFC" opacity="1.000000" stroke="none" 
	d="
M527.542358,308.336761 
	C523.957886,308.261169 520.830017,308.261169 516.890320,308.261169 
	C516.890320,302.741974 516.651367,297.824463 517.079163,292.965668 
	C517.171753,291.914429 519.638184,290.306458 521.051392,290.263031 
	C529.503540,290.003174 537.986328,289.779541 546.421143,290.237122 
	C552.483154,290.566010 554.163757,293.286957 553.997009,300.049347 
	C553.872070,305.113983 551.468445,307.628845 545.856873,307.946228 
	C539.914490,308.282349 533.952454,308.271606 527.542358,308.336761 
z"/>
<path fill="#FEFEFE" opacity="1.000000" stroke="none" 
	d="
M731.999939,298.064636 
	C731.999878,295.274017 731.999878,292.972656 731.999878,289.161560 
	C742.545166,289.909943 752.749695,289.997375 762.727356,291.546173 
	C770.538025,292.758606 773.981750,298.290405 774.000305,306.259491 
	C774.010742,310.748993 774.030151,315.238800 773.994019,319.728027 
	C773.942078,326.174011 770.649475,331.499146 764.486938,333.507904 
	C754.028198,336.917023 743.266113,336.373962 732.000000,335.250244 
	C732.000000,322.754639 732.000000,310.654266 731.999939,298.064636 
z"/>
</svg>